<svg width="47" height="24" viewBox="0 0 47 24" fill="none" xmlns="http://www.w3.org/2000/svg">
<path d="M14.8704 38.672C12.4064 38.672 10.2224 38.112 8.31838 36.992C6.45171 35.8347 4.95838 34.304 3.83838 32.4C2.75571 30.496 1.93438 28.4427 1.37438 26.24C0.851709 24.0373 0.590375 21.7413 0.590375 19.352C0.590375 16.9627 0.851709 14.6667 1.37438 12.464C1.93438 10.2613 2.75571 8.22667 3.83838 6.36C4.95838 4.456 6.45171 2.944 8.31838 1.824C10.2224 0.666664 12.4064 0.0879974 14.8704 0.0879974C17.297 0.0879974 19.4624 0.666664 21.3664 1.824C23.2704 2.944 24.7637 4.456 25.8464 6.36C26.9664 8.22667 27.7877 10.2613 28.3104 12.464C28.8704 14.6667 29.1504 16.9627 29.1504 19.352C29.1504 21.7413 28.8704 24.0373 28.3104 26.24C27.7877 28.4427 26.9664 30.496 25.8464 32.4C24.7637 34.304 23.2704 35.8347 21.3664 36.992C19.4624 38.112 17.297 38.672 14.8704 38.672ZM9.27038 32.232C10.7637 33.7627 12.6304 34.528 14.8704 34.528C17.1104 34.528 18.977 33.7627 20.4704 32.232C21.9637 30.664 22.9904 28.7973 23.5504 26.632C24.1104 24.4667 24.3904 22.04 24.3904 19.352C24.3904 16.664 24.1104 14.2373 23.5504 12.072C22.9904 9.90667 21.9637 8.05866 20.4704 6.528C18.977 4.99733 17.1104 4.232 14.8704 4.232C12.6304 4.232 10.7637 4.99733 9.27038 6.528C7.77704 8.05866 6.75038 9.90667 6.19038 12.072C5.63038 14.2373 5.35038 16.664 5.35038 19.352C5.35038 22.04 5.63038 24.4667 6.19038 26.632C6.75038 28.7973 7.77704 30.664 9.27038 32.232ZM46.6394 38H41.9914V6.808L35.9994 13.136L33.1994 10.28L42.5514 0.647997H46.6394V38Z" fill="white"/>
</svg>
