<svg width="61" height="31" viewBox="0 0 61 31" fill="none" xmlns="http://www.w3.org/2000/svg">
<path d="M14.9251 38.672C12.4611 38.672 10.2771 38.112 8.37306 36.992C6.5064 35.8347 5.01306 34.304 3.89306 32.4C2.8104 30.496 1.98906 28.4427 1.42906 26.24C0.906396 24.0373 0.645063 21.7413 0.645063 19.352C0.645063 16.9627 0.906396 14.6667 1.42906 12.464C1.98906 10.2613 2.8104 8.22667 3.89306 6.36C5.01306 4.456 6.5064 2.944 8.37306 1.824C10.2771 0.666664 12.4611 0.0879974 14.9251 0.0879974C17.3517 0.0879974 19.5171 0.666664 21.4211 1.824C23.3251 2.944 24.8184 4.456 25.9011 6.36C27.0211 8.22667 27.8424 10.2613 28.3651 12.464C28.9251 14.6667 29.2051 16.9627 29.2051 19.352C29.2051 21.7413 28.9251 24.0373 28.3651 26.24C27.8424 28.4427 27.0211 30.496 25.9011 32.4C24.8184 34.304 23.3251 35.8347 21.4211 36.992C19.5171 38.112 17.3517 38.672 14.9251 38.672ZM9.32506 32.232C10.8184 33.7627 12.6851 34.528 14.9251 34.528C17.1651 34.528 19.0317 33.7627 20.5251 32.232C22.0184 30.664 23.0451 28.7973 23.6051 26.632C24.1651 24.4667 24.4451 22.04 24.4451 19.352C24.4451 16.664 24.1651 14.2373 23.6051 12.072C23.0451 9.90667 22.0184 8.05866 20.5251 6.528C19.0317 4.99733 17.1651 4.232 14.9251 4.232C12.6851 4.232 10.8184 4.99733 9.32506 6.528C7.83173 8.05866 6.80506 9.90667 6.24506 12.072C5.68506 14.2373 5.40506 16.664 5.40506 19.352C5.40506 22.04 5.68506 24.4667 6.24506 26.632C6.80506 28.7973 7.83173 30.664 9.32506 32.232ZM60.7501 38H35.1021V34.304C38.9848 31.2427 41.9901 28.816 44.1181 27.024C46.2835 25.1947 48.3555 23.272 50.3341 21.256C52.3501 19.2027 53.7688 17.392 54.5901 15.824C55.4115 14.2187 55.8221 12.632 55.8221 11.064C55.8221 8.824 55.0568 7.12533 53.5261 5.968C51.9955 4.81066 50.1661 4.232 48.0381 4.232C43.7448 4.232 40.3661 5.8 37.9021 8.936L35.0461 5.968C36.4648 4.10133 38.3128 2.664 40.5901 1.656C42.9048 0.610664 45.3875 0.0879974 48.0381 0.0879974C51.4355 0.0879974 54.3661 1.04 56.8301 2.944C59.3315 4.848 60.5821 7.55466 60.5821 11.064C60.5821 14.536 59.0888 18.008 56.1021 21.48C53.1155 24.9147 48.5608 29.04 42.4381 33.856H60.7501V38Z" fill="white"/>
</svg>
