<svg width="60" height="30" viewBox="0 0 60 30" fill="none" xmlns="http://www.w3.org/2000/svg">
<path d="M14.6751 38.672C12.2111 38.672 10.0271 38.112 8.12306 36.992C6.2564 35.8347 4.76306 34.304 3.64306 32.4C2.5604 30.496 1.73906 28.4427 1.17906 26.24C0.656396 24.0373 0.395063 21.7413 0.395063 19.352C0.395063 16.9627 0.656396 14.6667 1.17906 12.464C1.73906 10.2613 2.5604 8.22667 3.64306 6.36C4.76306 4.456 6.2564 2.944 8.12306 1.824C10.0271 0.666664 12.2111 0.0879974 14.6751 0.0879974C17.1017 0.0879974 19.2671 0.666664 21.1711 1.824C23.0751 2.944 24.5684 4.456 25.6511 6.36C26.7711 8.22667 27.5924 10.2613 28.1151 12.464C28.6751 14.6667 28.9551 16.9627 28.9551 19.352C28.9551 21.7413 28.6751 24.0373 28.1151 26.24C27.5924 28.4427 26.7711 30.496 25.6511 32.4C24.5684 34.304 23.0751 35.8347 21.1711 36.992C19.2671 38.112 17.1017 38.672 14.6751 38.672ZM9.07506 32.232C10.5684 33.7627 12.4351 34.528 14.6751 34.528C16.9151 34.528 18.7817 33.7627 20.2751 32.232C21.7684 30.664 22.7951 28.7973 23.3551 26.632C23.9151 24.4667 24.1951 22.04 24.1951 19.352C24.1951 16.664 23.9151 14.2373 23.3551 12.072C22.7951 9.90667 21.7684 8.05866 20.2751 6.528C18.7817 4.99733 16.9151 4.232 14.6751 4.232C12.4351 4.232 10.5684 4.99733 9.07506 6.528C7.58173 8.05866 6.55506 9.90667 5.99506 12.072C5.43506 14.2373 5.15506 16.664 5.15506 19.352C5.15506 22.04 5.43506 24.4667 5.99506 26.632C6.55506 28.7973 7.58173 30.664 9.07506 32.232ZM46.7241 38.672C43.7375 38.672 41.0868 38.0933 38.7721 36.936C36.4575 35.7787 34.6841 34.304 33.4521 32.512L36.1961 29.6C37.3161 31.0933 38.7908 32.288 40.6201 33.184C42.4495 34.08 44.4468 34.528 46.6121 34.528C49.3375 34.528 51.4655 33.912 52.9961 32.68C54.5641 31.4107 55.3481 29.6933 55.3481 27.528C55.3481 25.288 54.5081 23.6267 52.8281 22.544C51.1855 21.4613 48.9268 20.92 46.0521 20.92C43.8495 20.92 42.5615 20.9387 42.1881 20.976V16.72C42.5988 16.7573 43.8868 16.776 46.0521 16.776C48.5908 16.776 50.6628 16.272 52.2681 15.264C53.9108 14.2187 54.7321 12.6693 54.7321 10.616C54.7321 8.63733 53.9295 7.088 52.3241 5.968C50.7561 4.81066 48.7775 4.232 46.3881 4.232C42.6175 4.232 39.3321 5.744 36.5321 8.768L33.9561 5.856C37.1295 2.01066 41.3855 0.0879974 46.7241 0.0879974C50.4201 0.0879974 53.4441 0.983998 55.7961 2.776C58.1855 4.53067 59.3801 6.95733 59.3801 10.056C59.3801 12.52 58.5588 14.4987 56.9161 15.992C55.2735 17.448 53.4068 18.3627 51.3161 18.736C53.3695 18.9227 55.3108 19.8187 57.1401 21.424C59.0068 23.0293 59.9401 25.1947 59.9401 27.92C59.9401 31.0933 58.7455 33.688 56.3561 35.704C53.9668 37.6827 50.7561 38.672 46.7241 38.672Z" fill="white"/>
</svg>
