<svg width="62" height="32" viewBox="0 0 62 32" fill="none" xmlns="http://www.w3.org/2000/svg">
<path d="M14.6204 38.672C12.1564 38.672 9.97238 38.112 8.06838 36.992C6.20171 35.8347 4.70838 34.304 3.58838 32.4C2.50571 30.496 1.68438 28.4427 1.12438 26.24C0.601709 24.0373 0.340375 21.7413 0.340375 19.352C0.340375 16.9627 0.601709 14.6667 1.12438 12.464C1.68438 10.2613 2.50571 8.22667 3.58838 6.36C4.70838 4.456 6.20171 2.944 8.06838 1.824C9.97238 0.666664 12.1564 0.0879974 14.6204 0.0879974C17.047 0.0879974 19.2124 0.666664 21.1164 1.824C23.0204 2.944 24.5137 4.456 25.5964 6.36C26.7164 8.22667 27.5377 10.2613 28.0604 12.464C28.6204 14.6667 28.9004 16.9627 28.9004 19.352C28.9004 21.7413 28.6204 24.0373 28.0604 26.24C27.5377 28.4427 26.7164 30.496 25.5964 32.4C24.5137 34.304 23.0204 35.8347 21.1164 36.992C19.2124 38.112 17.047 38.672 14.6204 38.672ZM9.02038 32.232C10.5137 33.7627 12.3804 34.528 14.6204 34.528C16.8604 34.528 18.727 33.7627 20.2204 32.232C21.7137 30.664 22.7404 28.7973 23.3004 26.632C23.8604 24.4667 24.1404 22.04 24.1404 19.352C24.1404 16.664 23.8604 14.2373 23.3004 12.072C22.7404 9.90667 21.7137 8.05866 20.2204 6.528C18.727 4.99733 16.8604 4.232 14.6204 4.232C12.3804 4.232 10.5137 4.99733 9.02038 6.528C7.52704 8.05866 6.50038 9.90667 5.94038 12.072C5.38038 14.2373 5.10038 16.664 5.10038 19.352C5.10038 22.04 5.38038 24.4667 5.94038 26.632C6.50038 28.7973 7.52704 30.664 9.02038 32.232ZM55.9654 38H51.3174V28.536H33.5654V24.672L49.5814 0.647997H55.9654V24.448H61.2294V28.536H55.9654V38ZM51.3174 24.448V4.96L38.2134 24.448H51.3174Z" fill="white"/>
</svg>
