<svg width="63" height="32" viewBox="0 0 63 32" fill="none" xmlns="http://www.w3.org/2000/svg">
<path d="M14.8157 38.672C12.3517 38.672 10.1677 38.112 8.26369 36.992C6.39702 35.8347 4.90369 34.304 3.78369 32.4C2.70102 30.496 1.87969 28.4427 1.31969 26.24C0.797021 24.0373 0.535688 21.7413 0.535688 19.352C0.535688 16.9627 0.797021 14.6667 1.31969 12.464C1.87969 10.2613 2.70102 8.22667 3.78369 6.36C4.90369 4.456 6.39702 2.944 8.26369 1.824C10.1677 0.666664 12.3517 0.0879974 14.8157 0.0879974C17.2424 0.0879974 19.4077 0.666664 21.3117 1.824C23.2157 2.944 24.709 4.456 25.7917 6.36C26.9117 8.22667 27.733 10.2613 28.2557 12.464C28.8157 14.6667 29.0957 16.9627 29.0957 19.352C29.0957 21.7413 28.8157 24.0373 28.2557 26.24C27.733 28.4427 26.9117 30.496 25.7917 32.4C24.709 34.304 23.2157 35.8347 21.3117 36.992C19.4077 38.112 17.2424 38.672 14.8157 38.672ZM9.21569 32.232C10.709 33.7627 12.5757 34.528 14.8157 34.528C17.0557 34.528 18.9224 33.7627 20.4157 32.232C21.909 30.664 22.9357 28.7973 23.4957 26.632C24.0557 24.4667 24.3357 22.04 24.3357 19.352C24.3357 16.664 24.0557 14.2373 23.4957 12.072C22.9357 9.90667 21.909 8.05866 20.4157 6.528C18.9224 4.99733 17.0557 4.232 14.8157 4.232C12.5757 4.232 10.709 4.99733 9.21569 6.528C7.72235 8.05866 6.69569 9.90667 6.13569 12.072C5.57569 14.2373 5.29569 16.664 5.29569 19.352C5.29569 22.04 5.57569 24.4667 6.13569 26.632C6.69569 28.7973 7.72235 30.664 9.21569 32.232ZM48.8248 38.672C43.0754 38.672 38.6887 36.6747 35.6647 32.68L38.5208 29.6C41.0968 32.8853 44.5314 34.528 48.8248 34.528C51.3634 34.528 53.4354 33.7627 55.0408 32.232C56.6461 30.7013 57.4488 28.7973 57.4488 26.52C57.4488 24.0933 56.6461 22.152 55.0408 20.696C53.4728 19.2027 51.4194 18.456 48.8808 18.456C45.5208 18.456 42.6461 19.632 40.2568 21.984L36.8408 20.808V0.647997H59.6888V4.792H41.4888V17.784C43.7288 15.544 46.6408 14.424 50.2248 14.424C53.5101 14.424 56.3101 15.5067 58.6248 17.672C60.9394 19.8 62.0968 22.6933 62.0968 26.352C62.0968 30.0853 60.8461 33.072 58.3448 35.312C55.8434 37.552 52.6701 38.672 48.8248 38.672Z" fill="white"/>
</svg>
