<svg width="40" height="33" viewBox="0 0 40 33" fill="none" xmlns="http://www.w3.org/2000/svg">
<path d="M36.84 23.2L35.9694 22.7079L35.9658 22.7144L36.84 23.2ZM28.68 32.2L28.0414 32.9696L28.6275 33.4559L29.2522 33.0201L28.68 32.2ZM23.04 27.52L22.5255 26.6625L21.3155 27.3885L22.4014 28.2896L23.04 27.52ZM28.56 22.48L27.7706 21.8661L28.56 22.48ZM31.68 16.24L32.6606 16.4361L32.9985 14.7464L31.3638 15.2913L31.68 16.24ZM24.48 14.56L23.753 15.2466L23.7628 15.257L23.7729 15.2671L24.48 14.56ZM24.84 3.28L25.5471 3.98711L25.5557 3.97848L25.5641 3.96965L24.84 3.28ZM37.2 3.76L36.4641 4.43705L36.471 4.44455L36.478 4.4519L37.2 3.76ZM14.64 23.2L13.7694 22.7079L13.7658 22.7144L14.64 23.2ZM6.48 32.2L5.84143 32.9696L6.42755 33.4559L7.05218 33.0201L6.48 32.2ZM0.840001 27.52L0.325505 26.6625L-0.884474 27.3885L0.201428 28.2896L0.840001 27.52ZM6.36 22.48L5.57065 21.8661H5.57065L6.36 22.48ZM9.48 16.24L10.4606 16.4361L10.7985 14.7464L9.16377 15.2913L9.48 16.24ZM2.28 14.56L1.55299 15.2466L1.56279 15.257L1.57289 15.2671L2.28 14.56ZM2.64 3.28L3.34711 3.98711L3.35573 3.97848L3.36414 3.96965L2.64 3.28ZM15 3.76L14.2641 4.43705L14.271 4.44455L14.278 4.4519L15 3.76ZM38.96 11.68C38.96 15.4977 37.9696 19.1692 35.9694 22.7079L37.7106 23.6921C39.8704 19.8708 40.96 15.8623 40.96 11.68H38.96ZM35.9658 22.7144C34.0411 26.1788 31.4254 29.0653 28.1078 31.3799L29.2522 33.0201C32.8146 30.5347 35.6389 27.4212 37.7142 23.6856L35.9658 22.7144ZM29.3186 31.4304L23.6786 26.7504L22.4014 28.2896L28.0414 32.9696L29.3186 31.4304ZM23.5545 28.3775C25.677 27.104 27.6064 25.3348 29.3494 23.0939L27.7706 21.8661C26.1536 23.9452 24.403 25.536 22.5255 26.6625L23.5545 28.3775ZM29.3494 23.0939C31.0936 20.8513 32.2216 18.6312 32.6606 16.4361L30.6994 16.0439C30.3384 17.8488 29.3864 19.7887 27.7706 21.8661L29.3494 23.0939ZM31.3638 15.2913C30.7273 15.5035 30.1547 15.6 29.64 15.6V17.6C30.4053 17.6 31.1927 17.4565 31.9962 17.1887L31.3638 15.2913ZM29.64 15.6C27.8014 15.6 26.3434 15.0091 25.1871 13.8529L23.7729 15.2671C25.3366 16.8309 27.3186 17.6 29.64 17.6V15.6ZM25.207 13.8734C24.0456 12.6437 23.44 11.0608 23.44 9.03999H21.44C21.44 11.4992 22.1944 13.5963 23.753 15.2466L25.207 13.8734ZM23.44 9.03999C23.44 7.06822 24.1325 5.40171 25.5471 3.98711L24.1329 2.57289C22.3475 4.35828 21.44 6.53177 21.44 9.03999H23.44ZM25.5641 3.96965C26.983 2.47986 28.6445 1.75999 30.6 1.75999V-0.240005C28.0755 -0.240005 25.897 0.720127 24.1159 2.59034L25.5641 3.96965ZM30.6 1.75999C32.8615 1.75999 34.8003 2.62862 36.4641 4.43705L37.9359 3.08294C35.9197 0.891373 33.4585 -0.240005 30.6 -0.240005V1.75999ZM36.478 4.4519C38.0959 6.14009 38.96 8.50681 38.96 11.68H40.96C40.96 8.13319 39.9841 5.21991 37.922 3.06809L36.478 4.4519ZM16.76 11.68C16.76 15.4977 15.7696 19.1692 13.7694 22.7079L15.5106 23.6921C17.6704 19.8708 18.76 15.8623 18.76 11.68H16.76ZM13.7658 22.7144C11.8411 26.1788 9.22541 29.0653 5.90782 31.3799L7.05218 33.0201C10.6146 30.5347 13.4389 27.4212 15.5142 23.6856L13.7658 22.7144ZM7.11857 31.4304L1.47857 26.7504L0.201428 28.2896L5.84143 32.9696L7.11857 31.4304ZM1.3545 28.3775C3.47699 27.104 5.40645 25.3348 7.14935 23.0939L5.57065 21.8661C3.95356 23.9452 2.20301 25.536 0.325505 26.6625L1.3545 28.3775ZM7.14935 23.0939C8.8936 20.8513 10.0216 18.6312 10.4606 16.4361L8.49942 16.0439C8.13844 17.8488 7.1864 19.7887 5.57065 21.8661L7.14935 23.0939ZM9.16377 15.2913C8.52731 15.5035 7.95467 15.6 7.44 15.6V17.6C8.20533 17.6 8.99269 17.4565 9.79623 17.1887L9.16377 15.2913ZM7.44 15.6C5.60137 15.6 4.14335 15.0091 2.98711 13.8529L1.57289 15.2671C3.13665 16.8309 5.11863 17.6 7.44 17.6V15.6ZM3.00701 13.8734C1.84565 12.6437 1.24 11.0608 1.24 9.03999H-0.76C-0.76 11.4992 -0.00564718 13.5963 1.55299 15.2466L3.00701 13.8734ZM1.24 9.03999C1.24 7.06822 1.9325 5.40171 3.34711 3.98711L1.93289 2.57289C0.147498 4.35828 -0.76 6.53177 -0.76 9.03999H1.24ZM3.36414 3.96965C4.78298 2.47986 6.44449 1.75999 8.4 1.75999V-0.240005C5.87551 -0.240005 3.69702 0.720127 1.91586 2.59034L3.36414 3.96965ZM8.4 1.75999C10.6615 1.75999 12.6003 2.62862 14.2641 4.43705L15.7359 3.08294C13.7197 0.891373 11.2585 -0.240005 8.4 -0.240005V1.75999ZM14.278 4.4519C15.8959 6.14009 16.76 8.50681 16.76 11.68H18.76C18.76 8.13319 17.7841 5.21991 15.722 3.06809L14.278 4.4519Z" fill="#E3E3E3"/>
<path d="M36.84 23.2L35.9694 22.7079L35.9658 22.7144L36.84 23.2ZM28.68 32.2L28.0414 32.9696L28.6275 33.4559L29.2522 33.0201L28.68 32.2ZM23.04 27.52L22.5255 26.6625L21.3155 27.3885L22.4014 28.2896L23.04 27.52ZM28.56 22.48L27.7706 21.8661L28.56 22.48ZM31.68 16.24L32.6606 16.4361L32.9985 14.7464L31.3638 15.2913L31.68 16.24ZM24.48 14.56L23.753 15.2466L23.7628 15.257L23.7729 15.2671L24.48 14.56ZM24.84 3.28L25.5471 3.98711L25.5557 3.97848L25.5641 3.96965L24.84 3.28ZM37.2 3.76L36.4641 4.43705L36.471 4.44455L36.478 4.4519L37.2 3.76ZM14.64 23.2L13.7694 22.7079L13.7658 22.7144L14.64 23.2ZM6.48 32.2L5.84143 32.9696L6.42755 33.4559L7.05218 33.0201L6.48 32.2ZM0.840001 27.52L0.325505 26.6625L-0.884474 27.3885L0.201428 28.2896L0.840001 27.52ZM6.36 22.48L5.57065 21.8661H5.57065L6.36 22.48ZM9.48 16.24L10.4606 16.4361L10.7985 14.7464L9.16377 15.2913L9.48 16.24ZM2.28 14.56L1.55299 15.2466L1.56279 15.257L1.57289 15.2671L2.28 14.56ZM2.64 3.28L3.34711 3.98711L3.35573 3.97848L3.36414 3.96965L2.64 3.28ZM15 3.76L14.2641 4.43705L14.271 4.44455L14.278 4.4519L15 3.76ZM38.96 11.68C38.96 15.4977 37.9696 19.1692 35.9694 22.7079L37.7106 23.6921C39.8704 19.8708 40.96 15.8623 40.96 11.68H38.96ZM35.9658 22.7144C34.0411 26.1788 31.4254 29.0653 28.1078 31.3799L29.2522 33.0201C32.8146 30.5347 35.6389 27.4212 37.7142 23.6856L35.9658 22.7144ZM29.3186 31.4304L23.6786 26.7504L22.4014 28.2896L28.0414 32.9696L29.3186 31.4304ZM23.5545 28.3775C25.677 27.104 27.6064 25.3348 29.3494 23.0939L27.7706 21.8661C26.1536 23.9452 24.403 25.536 22.5255 26.6625L23.5545 28.3775ZM29.3494 23.0939C31.0936 20.8513 32.2216 18.6312 32.6606 16.4361L30.6994 16.0439C30.3384 17.8488 29.3864 19.7887 27.7706 21.8661L29.3494 23.0939ZM31.3638 15.2913C30.7273 15.5035 30.1547 15.6 29.64 15.6V17.6C30.4053 17.6 31.1927 17.4565 31.9962 17.1887L31.3638 15.2913ZM29.64 15.6C27.8014 15.6 26.3434 15.0091 25.1871 13.8529L23.7729 15.2671C25.3366 16.8309 27.3186 17.6 29.64 17.6V15.6ZM25.207 13.8734C24.0456 12.6437 23.44 11.0608 23.44 9.03999H21.44C21.44 11.4992 22.1944 13.5963 23.753 15.2466L25.207 13.8734ZM23.44 9.03999C23.44 7.06822 24.1325 5.40171 25.5471 3.98711L24.1329 2.57289C22.3475 4.35828 21.44 6.53177 21.44 9.03999H23.44ZM25.5641 3.96965C26.983 2.47986 28.6445 1.75999 30.6 1.75999V-0.240005C28.0755 -0.240005 25.897 0.720127 24.1159 2.59034L25.5641 3.96965ZM30.6 1.75999C32.8615 1.75999 34.8003 2.62862 36.4641 4.43705L37.9359 3.08294C35.9197 0.891373 33.4585 -0.240005 30.6 -0.240005V1.75999ZM36.478 4.4519C38.0959 6.14009 38.96 8.50681 38.96 11.68H40.96C40.96 8.13319 39.9841 5.21991 37.922 3.06809L36.478 4.4519ZM16.76 11.68C16.76 15.4977 15.7696 19.1692 13.7694 22.7079L15.5106 23.6921C17.6704 19.8708 18.76 15.8623 18.76 11.68H16.76ZM13.7658 22.7144C11.8411 26.1788 9.22541 29.0653 5.90782 31.3799L7.05218 33.0201C10.6146 30.5347 13.4389 27.4212 15.5142 23.6856L13.7658 22.7144ZM7.11857 31.4304L1.47857 26.7504L0.201428 28.2896L5.84143 32.9696L7.11857 31.4304ZM1.3545 28.3775C3.47699 27.104 5.40645 25.3348 7.14935 23.0939L5.57065 21.8661C3.95356 23.9452 2.20301 25.536 0.325505 26.6625L1.3545 28.3775ZM7.14935 23.0939C8.8936 20.8513 10.0216 18.6312 10.4606 16.4361L8.49942 16.0439C8.13844 17.8488 7.1864 19.7887 5.57065 21.8661L7.14935 23.0939ZM9.16377 15.2913C8.52731 15.5035 7.95467 15.6 7.44 15.6V17.6C8.20533 17.6 8.99269 17.4565 9.79623 17.1887L9.16377 15.2913ZM7.44 15.6C5.60137 15.6 4.14335 15.0091 2.98711 13.8529L1.57289 15.2671C3.13665 16.8309 5.11863 17.6 7.44 17.6V15.6ZM3.00701 13.8734C1.84565 12.6437 1.24 11.0608 1.24 9.03999H-0.76C-0.76 11.4992 -0.00564718 13.5963 1.55299 15.2466L3.00701 13.8734ZM1.24 9.03999C1.24 7.06822 1.9325 5.40171 3.34711 3.98711L1.93289 2.57289C0.147498 4.35828 -0.76 6.53177 -0.76 9.03999H1.24ZM3.36414 3.96965C4.78298 2.47986 6.44449 1.75999 8.4 1.75999V-0.240005C5.87551 -0.240005 3.69702 0.720127 1.91586 2.59034L3.36414 3.96965ZM8.4 1.75999C10.6615 1.75999 12.6003 2.62862 14.2641 4.43705L15.7359 3.08294C13.7197 0.891373 11.2585 -0.240005 8.4 -0.240005V1.75999ZM14.278 4.4519C15.8959 6.14009 16.76 8.50681 16.76 11.68H18.76C18.76 8.13319 17.7841 5.21991 15.722 3.06809L14.278 4.4519Z" fill="#E3E3E3"/>
</svg>
