<svg width="41" height="33" viewBox="0 0 41 33" fill="none" xmlns="http://www.w3.org/2000/svg">
<path d="M3.52 9.75999L2.65414 9.25972L2.64993 9.267L2.64584 9.27435L3.52 9.75999ZM11.68 0.759995L12.3007 -0.0240517L11.7109 -0.490978L11.0988 -0.0537376L11.68 0.759995ZM17.44 5.31999L17.9545 6.17749L19.1945 5.43351L18.0607 4.53595L17.44 5.31999ZM11.8 10.36L11.0248 9.72833L11.0176 9.73711L11.0106 9.74606L11.8 10.36ZM8.8 16.6L7.81256 16.442L7.50478 18.3657L9.24722 17.4944L8.8 16.6ZM15.88 18.52L15.153 19.2066L15.88 18.52ZM15.52 29.68L14.8129 28.9729L15.52 29.68ZM3.16 29.2L2.40929 29.8606L2.42332 29.8766L2.43801 29.8919L3.16 29.2ZM25.72 9.75999L24.8541 9.25972L24.8499 9.267L24.8458 9.27435L25.72 9.75999ZM33.88 0.759995L34.5007 -0.0240517L33.9109 -0.490978L33.2988 -0.0537376L33.88 0.759995ZM39.64 5.31999L40.1545 6.17749L41.3945 5.43351L40.2607 4.53595L39.64 5.31999ZM34 10.36L33.2248 9.72833L33.2176 9.73711L33.2107 9.74606L34 10.36ZM31 16.6L30.0126 16.442L29.7048 18.3657L31.4472 17.4944L31 16.6ZM38.08 18.52L38.807 17.8334H38.807L38.08 18.52ZM37.72 29.68L37.0129 28.9729L37.72 29.68ZM25.36 29.2L24.6093 29.8606L24.6233 29.8766L24.638 29.8919L25.36 29.2ZM1.52 21.16C1.52 17.3351 2.47415 13.7017 4.39416 10.2456L2.64584 9.27435C0.565854 13.0183 -0.48 16.9849 -0.48 21.16H1.52ZM4.38587 10.2603C6.39496 6.78299 9.01823 3.89017 12.2612 1.57373L11.0988 -0.0537376C7.62177 2.42983 4.80504 5.537 2.65414 9.25972L4.38587 10.2603ZM11.0593 1.54404L16.8193 6.10404L18.0607 4.53595L12.3007 -0.0240517L11.0593 1.54404ZM16.9255 4.4625C14.8089 5.73244 12.8441 7.49553 11.0248 9.72833L12.5752 10.9917C14.2759 8.90447 16.0711 7.30756 17.9545 6.17749L16.9255 4.4625ZM11.0106 9.74606C9.26206 11.9942 8.16686 14.2276 7.81256 16.442L9.78744 16.758C10.0731 14.9724 10.9779 13.0458 12.5894 10.9739L11.0106 9.74606ZM9.24722 17.4944C9.23669 17.4997 9.26068 17.4866 9.34088 17.4674C9.4173 17.449 9.52409 17.4299 9.66684 17.4131C9.95369 17.3794 10.3413 17.36 10.84 17.36V15.36C10.2987 15.36 9.82631 15.3806 9.43316 15.4268C9.06337 15.4703 8.67232 15.5458 8.35278 15.7056L9.24722 17.4944ZM10.84 17.36C12.5679 17.36 13.984 17.9688 15.153 19.2066L16.607 17.8334C15.056 16.1911 13.1121 15.36 10.84 15.36V17.36ZM15.153 19.2066C16.3211 20.4434 16.92 21.9901 16.92 23.92H18.92C18.92 21.5299 18.1589 19.4766 16.607 17.8334L15.153 19.2066ZM16.92 23.92C16.92 25.8918 16.2275 27.5583 14.8129 28.9729L16.2271 30.3871C18.0125 28.6017 18.92 26.4282 18.92 23.92H16.92ZM14.8129 28.9729C13.3983 30.3875 11.7318 31.08 9.76 31.08V33.08C12.2682 33.08 14.4417 32.1725 16.2271 30.3871L14.8129 28.9729ZM9.76 31.08C7.48426 31.08 5.5416 30.2399 3.88199 28.5081L2.43801 29.8919C4.4584 32.0001 6.91574 33.08 9.76 33.08V31.08ZM3.91071 28.5394C2.35001 26.7658 1.52 24.3424 1.52 21.16H-0.48C-0.48 24.6975 0.449994 27.6342 2.40929 29.8606L3.91071 28.5394ZM23.72 21.16C23.72 17.3351 24.6741 13.7017 26.5942 10.2456L24.8458 9.27435C22.7659 13.0183 21.72 16.9849 21.72 21.16H23.72ZM26.5859 10.2603C28.595 6.78299 31.2182 3.89017 34.4612 1.57373L33.2988 -0.0537376C29.8218 2.42983 27.005 5.537 24.8541 9.25972L26.5859 10.2603ZM33.2593 1.54404L39.0193 6.10404L40.2607 4.53595L34.5007 -0.0240517L33.2593 1.54404ZM39.1255 4.4625C37.0089 5.73244 35.0441 7.49553 33.2248 9.72833L34.7752 10.9917C36.4759 8.90447 38.2711 7.30756 40.1545 6.17749L39.1255 4.4625ZM33.2107 9.74606C31.4621 11.9942 30.3669 14.2276 30.0126 16.442L31.9874 16.758C32.2731 14.9724 33.1779 13.0458 34.7894 10.9739L33.2107 9.74606ZM31.4472 17.4944C31.4367 17.4997 31.4607 17.4866 31.5409 17.4674C31.6173 17.449 31.7241 17.4299 31.8668 17.4131C32.1537 17.3794 32.5413 17.36 33.04 17.36V15.36C32.4987 15.36 32.0263 15.3806 31.6332 15.4268C31.2634 15.4703 30.8723 15.5458 30.5528 15.7056L31.4472 17.4944ZM33.04 17.36C34.7679 17.36 36.184 17.9688 37.353 19.2066L38.807 17.8334C37.256 16.1911 35.3121 15.36 33.04 15.36V17.36ZM37.353 19.2066C38.5211 20.4434 39.12 21.9901 39.12 23.92H41.12C41.12 21.5299 40.3589 19.4766 38.807 17.8334L37.353 19.2066ZM39.12 23.92C39.12 25.8918 38.4275 27.5583 37.0129 28.9729L38.4271 30.3871C40.2125 28.6017 41.12 26.4282 41.12 23.92H39.12ZM37.0129 28.9729C35.5983 30.3875 33.9318 31.08 31.96 31.08V33.08C34.4682 33.08 36.6417 32.1725 38.4271 30.3871L37.0129 28.9729ZM31.96 31.08C29.6843 31.08 27.7416 30.2399 26.082 28.5081L24.638 29.8919C26.6584 32.0001 29.1157 33.08 31.96 33.08V31.08ZM26.1107 28.5394C24.55 26.7658 23.72 24.3424 23.72 21.16H21.72C21.72 24.6975 22.65 27.6342 24.6093 29.8606L26.1107 28.5394Z" fill="#E3E3E3"/>
<path d="M3.52 9.75999L2.65414 9.25972L2.64993 9.267L2.64584 9.27435L3.52 9.75999ZM11.68 0.759995L12.3007 -0.0240517L11.7109 -0.490978L11.0988 -0.0537376L11.68 0.759995ZM17.44 5.31999L17.9545 6.17749L19.1945 5.43351L18.0607 4.53595L17.44 5.31999ZM11.8 10.36L11.0248 9.72833L11.0176 9.73711L11.0106 9.74606L11.8 10.36ZM8.8 16.6L7.81256 16.442L7.50478 18.3657L9.24722 17.4944L8.8 16.6ZM15.88 18.52L15.153 19.2066L15.88 18.52ZM15.52 29.68L14.8129 28.9729L15.52 29.68ZM3.16 29.2L2.40929 29.8606L2.42332 29.8766L2.43801 29.8919L3.16 29.2ZM25.72 9.75999L24.8541 9.25972L24.8499 9.267L24.8458 9.27435L25.72 9.75999ZM33.88 0.759995L34.5007 -0.0240517L33.9109 -0.490978L33.2988 -0.0537376L33.88 0.759995ZM39.64 5.31999L40.1545 6.17749L41.3945 5.43351L40.2607 4.53595L39.64 5.31999ZM34 10.36L33.2248 9.72833L33.2176 9.73711L33.2107 9.74606L34 10.36ZM31 16.6L30.0126 16.442L29.7048 18.3657L31.4472 17.4944L31 16.6ZM38.08 18.52L38.807 17.8334H38.807L38.08 18.52ZM37.72 29.68L37.0129 28.9729L37.72 29.68ZM25.36 29.2L24.6093 29.8606L24.6233 29.8766L24.638 29.8919L25.36 29.2ZM1.52 21.16C1.52 17.3351 2.47415 13.7017 4.39416 10.2456L2.64584 9.27435C0.565854 13.0183 -0.48 16.9849 -0.48 21.16H1.52ZM4.38587 10.2603C6.39496 6.78299 9.01823 3.89017 12.2612 1.57373L11.0988 -0.0537376C7.62177 2.42983 4.80504 5.537 2.65414 9.25972L4.38587 10.2603ZM11.0593 1.54404L16.8193 6.10404L18.0607 4.53595L12.3007 -0.0240517L11.0593 1.54404ZM16.9255 4.4625C14.8089 5.73244 12.8441 7.49553 11.0248 9.72833L12.5752 10.9917C14.2759 8.90447 16.0711 7.30756 17.9545 6.17749L16.9255 4.4625ZM11.0106 9.74606C9.26206 11.9942 8.16686 14.2276 7.81256 16.442L9.78744 16.758C10.0731 14.9724 10.9779 13.0458 12.5894 10.9739L11.0106 9.74606ZM9.24722 17.4944C9.23669 17.4997 9.26068 17.4866 9.34088 17.4674C9.4173 17.449 9.52409 17.4299 9.66684 17.4131C9.95369 17.3794 10.3413 17.36 10.84 17.36V15.36C10.2987 15.36 9.82631 15.3806 9.43316 15.4268C9.06337 15.4703 8.67232 15.5458 8.35278 15.7056L9.24722 17.4944ZM10.84 17.36C12.5679 17.36 13.984 17.9688 15.153 19.2066L16.607 17.8334C15.056 16.1911 13.1121 15.36 10.84 15.36V17.36ZM15.153 19.2066C16.3211 20.4434 16.92 21.9901 16.92 23.92H18.92C18.92 21.5299 18.1589 19.4766 16.607 17.8334L15.153 19.2066ZM16.92 23.92C16.92 25.8918 16.2275 27.5583 14.8129 28.9729L16.2271 30.3871C18.0125 28.6017 18.92 26.4282 18.92 23.92H16.92ZM14.8129 28.9729C13.3983 30.3875 11.7318 31.08 9.76 31.08V33.08C12.2682 33.08 14.4417 32.1725 16.2271 30.3871L14.8129 28.9729ZM9.76 31.08C7.48426 31.08 5.5416 30.2399 3.88199 28.5081L2.43801 29.8919C4.4584 32.0001 6.91574 33.08 9.76 33.08V31.08ZM3.91071 28.5394C2.35001 26.7658 1.52 24.3424 1.52 21.16H-0.48C-0.48 24.6975 0.449994 27.6342 2.40929 29.8606L3.91071 28.5394ZM23.72 21.16C23.72 17.3351 24.6741 13.7017 26.5942 10.2456L24.8458 9.27435C22.7659 13.0183 21.72 16.9849 21.72 21.16H23.72ZM26.5859 10.2603C28.595 6.78299 31.2182 3.89017 34.4612 1.57373L33.2988 -0.0537376C29.8218 2.42983 27.005 5.537 24.8541 9.25972L26.5859 10.2603ZM33.2593 1.54404L39.0193 6.10404L40.2607 4.53595L34.5007 -0.0240517L33.2593 1.54404ZM39.1255 4.4625C37.0089 5.73244 35.0441 7.49553 33.2248 9.72833L34.7752 10.9917C36.4759 8.90447 38.2711 7.30756 40.1545 6.17749L39.1255 4.4625ZM33.2107 9.74606C31.4621 11.9942 30.3669 14.2276 30.0126 16.442L31.9874 16.758C32.2731 14.9724 33.1779 13.0458 34.7894 10.9739L33.2107 9.74606ZM31.4472 17.4944C31.4367 17.4997 31.4607 17.4866 31.5409 17.4674C31.6173 17.449 31.7241 17.4299 31.8668 17.4131C32.1537 17.3794 32.5413 17.36 33.04 17.36V15.36C32.4987 15.36 32.0263 15.3806 31.6332 15.4268C31.2634 15.4703 30.8723 15.5458 30.5528 15.7056L31.4472 17.4944ZM33.04 17.36C34.7679 17.36 36.184 17.9688 37.353 19.2066L38.807 17.8334C37.256 16.1911 35.3121 15.36 33.04 15.36V17.36ZM37.353 19.2066C38.5211 20.4434 39.12 21.9901 39.12 23.92H41.12C41.12 21.5299 40.3589 19.4766 38.807 17.8334L37.353 19.2066ZM39.12 23.92C39.12 25.8918 38.4275 27.5583 37.0129 28.9729L38.4271 30.3871C40.2125 28.6017 41.12 26.4282 41.12 23.92H39.12ZM37.0129 28.9729C35.5983 30.3875 33.9318 31.08 31.96 31.08V33.08C34.4682 33.08 36.6417 32.1725 38.4271 30.3871L37.0129 28.9729ZM31.96 31.08C29.6843 31.08 27.7416 30.2399 26.082 28.5081L24.638 29.8919C26.6584 32.0001 29.1157 33.08 31.96 33.08V31.08ZM26.1107 28.5394C24.55 26.7658 23.72 24.3424 23.72 21.16H21.72C21.72 24.6975 22.65 27.6342 24.6093 29.8606L26.1107 28.5394Z" fill="#E3E3E3"/>
</svg>
