<svg width="14" height="14" viewBox="0 0 14 14" fill="none" xmlns="http://www.w3.org/2000/svg">
<g clip-path="url(#clip0_107_82)">
<path d="M12.459 9.1894C11.684 9.1894 10.9231 9.05534 10.202 8.79178C9.84865 8.65849 9.41428 8.78077 9.19863 9.02573L7.77533 10.2141C6.1247 9.23956 5.10794 8.11541 4.23887 6.30354L5.2817 4.77039C5.55263 4.47114 5.64981 4.03401 5.53338 3.62385C5.29406 2.82213 5.17249 1.98093 5.17249 1.12343C5.17252 0.503964 4.71685 0 4.15679 0H1.83214C1.27207 0 0.816406 0.503964 0.816406 1.12339C0.816406 8.22365 6.03922 14 12.459 14C13.0191 14 13.4748 13.496 13.4748 12.8766V10.3127C13.4747 9.69336 13.0191 9.1894 12.459 9.1894Z" fill="white"/>
</g>
<defs>
<clipPath id="clip0_107_82">
<rect width="12.6583" height="14" fill="white" transform="translate(0.816406)"/>
</clipPath>
</defs>
</svg>
