<svg width="16" height="16" viewBox="0 0 16 16" fill="none" xmlns="http://www.w3.org/2000/svg">
<g clip-path="url(#clip0_107_90)">
<path d="M10.4316 8.08232L15.3087 11.4923V4.52832L10.4316 8.08232Z" fill="white"/>
<path d="M0.841797 4.52832V11.4923L5.71887 8.08232L0.841797 4.52832Z" fill="white"/>
<path d="M14.4045 2.5H1.74618C1.295 2.5 0.936953 2.872 0.869141 3.351L8.07535 8.602L15.2816 3.351C15.2137 2.872 14.8557 2.5 14.4045 2.5Z" fill="white"/>
<path d="M9.60354 8.68557L8.32414 9.61757C8.24819 9.67257 8.16229 9.69957 8.07549 9.69957C7.98869 9.69957 7.9028 9.67257 7.82685 9.61757L6.54745 8.68457L0.871094 12.6556C0.940715 13.1306 1.29696 13.4996 1.74633 13.4996H14.4047C14.854 13.4996 15.2103 13.1306 15.2799 12.6556L9.60354 8.68557Z" fill="white"/>
</g>
<defs>
<clipPath id="clip0_107_90">
<rect width="14.4667" height="16" fill="white" transform="translate(0.841797)"/>
</clipPath>
</defs>
</svg>
