<svg width="16" height="16" viewBox="0 0 16 16" fill="none" xmlns="http://www.w3.org/2000/svg">
<g clip-path="url(#clip0_107_105)">
<path d="M11.1717 0H4.53708C2.37777 0 0.621094 1.94287 0.621094 4.33105V11.669C0.621094 14.0571 2.37777 16 4.53708 16H11.1719C13.3311 16 15.0877 14.0571 15.0877 11.669V4.33105C15.0877 1.94287 13.3311 0 11.1717 0V0ZM7.85441 12.3749C5.67325 12.3749 3.8988 10.4123 3.8988 7.99998C3.8988 5.58764 5.67325 3.62512 7.85441 3.62512C10.0356 3.62512 11.81 5.58764 11.81 7.99998C11.81 10.4123 10.0356 12.3749 7.85441 12.3749ZM11.9046 4.65685C11.26 4.65685 10.7358 4.07702 10.7358 3.36413C10.7358 2.65124 11.26 2.07129 11.9046 2.07129C12.5492 2.07129 13.0736 2.65124 13.0736 3.36413C13.0736 4.07702 12.5492 4.65685 11.9046 4.65685Z" fill="white"/>
<path d="M7.85459 4.56299C6.14118 4.56299 4.74707 6.10473 4.74707 7.99987C4.74707 9.89489 6.14118 11.4368 7.85459 11.4368C9.56811 11.4368 10.9621 9.89489 10.9621 7.99987C10.9621 6.10473 9.56811 4.56299 7.85459 4.56299Z" fill="white"/>
<path d="M11.9047 3.00928C11.7279 3.00928 11.584 3.16846 11.584 3.36401C11.584 3.55957 11.7279 3.71875 11.9047 3.71875C12.0816 3.71875 12.2256 3.55969 12.2256 3.36401C12.2256 3.16833 12.0816 3.00928 11.9047 3.00928Z" fill="white"/>
</g>
<defs>
<clipPath id="clip0_107_105">
<rect width="14.4667" height="16" fill="white" transform="translate(0.621094)"/>
</clipPath>
</defs>
</svg>
