<svg width="18" height="18" viewBox="0 0 18 18" fill="none" xmlns="http://www.w3.org/2000/svg">
<g clip-path="url(#clip0_107_111)">
<path d="M14.3965 9.771C14.1333 9.4035 14.2086 9.24 14.3965 8.9115C14.3998 8.90775 16.5719 5.58825 16.7957 4.4625L16.797 4.46175C16.9082 4.0515 16.797 3.75 16.2593 3.75H14.4799C14.0269 3.75 13.818 4.00875 13.7061 4.29825C13.7061 4.29825 12.8002 6.69675 11.5185 8.2515C11.1048 8.70075 10.9136 8.84475 10.6878 8.84475C10.5766 8.84475 10.4037 8.70075 10.4037 8.2905V4.46175C10.4037 3.96975 10.2768 3.75 9.90185 3.75H7.1039C6.81977 3.75 6.65092 3.9795 6.65092 4.19325C6.65092 4.65975 7.29174 4.767 7.3582 6.0795V8.92725C7.3582 9.55125 7.2558 9.666 7.02863 9.666C6.42374 9.666 4.9556 7.25775 4.08557 4.5015C3.90994 3.96675 3.73837 3.75075 3.28199 3.75075H1.50191C0.993998 3.75075 0.891602 4.0095 0.891602 4.299C0.891602 4.8105 1.49649 7.35375 3.70446 10.7138C5.17599 13.0073 7.24834 14.25 9.13353 14.25C10.2667 14.25 10.405 13.974 10.405 13.4993C10.405 11.3078 10.3026 11.1008 10.8702 11.1008C11.1333 11.1008 11.5863 11.2448 12.6442 12.351C13.8533 13.6628 14.052 14.25 14.7287 14.25H16.5081C17.0154 14.25 17.2724 13.974 17.1246 13.4295C16.7862 12.2843 14.4995 9.9285 14.3965 9.771Z" fill="white"/>
</g>
<defs>
<clipPath id="clip0_107_111">
<rect width="16.275" height="18" fill="white" transform="translate(0.891602)"/>
</clipPath>
</defs>
</svg>
